Coordinates
version=1
nRows=22
nColumns=24
inDegrees=yes

Units are S.I. units (second, meters, Newtons, ...)
Angles are in degrees.

endheader
time	pelvis_tilt	pelvis_list	pelvis_rotation	pelvis_tx	pelvis_ty	pelvis_tz	hip_flexion_r	hip_adduction_r	hip_rotation_r	knee_angle_r	ankle_angle_r	subtalar_angle_r	mtp_angle_r	hip_flexion_l	hip_adduction_l	hip_rotation_l	knee_angle_l	ankle_angle_l	subtalar_angle_l	mtp_angle_l	lumbar_extension	lumbar_bending	lumbar_rotation
      8.50000000	      6.77293542	     -3.32789918	     -2.13460312	      1.98530536	      0.94572132	     -0.21407943	     10.08036832	      4.53727586	     -4.43677291	    -58.67646854	     -4.78477720	    -12.79354245	      0.00000000	     -2.66527327	      2.18162998	     -3.24389106	     -6.87763251	      6.74550332	     -5.08708520	      0.00000000	    -25.37898570	      3.95507334	     -0.06070563
      8.51000000	      6.69734025	     -3.54670100	     -2.00671514	      1.99353229	      0.94629446	     -0.21460554	     11.08453192	      4.88021239	     -4.55624294	    -58.12707687	     -2.19821317	    -12.57487885	      0.00000000	     -3.36485431	      1.99470592	     -3.23430145	     -6.46242778	      7.08261618	     -4.88929286	      0.00000000	    -25.34376905	      4.29252307	     -0.21499257
      8.52000000	      6.61495031	     -3.74132529	     -1.85710226	      2.00174580	      0.94673781	     -0.21512220	     12.03806909	      5.18623821	     -4.70609366	    -57.35207419	     -0.17963943	    -12.44194765	      0.00000000	     -4.06097990	      1.83017287	     -3.20758687	     -6.02890876	      7.41274278	     -4.69852887	      0.00000000	    -25.29768564	      4.60330540	     -0.39482051
      8.53000000	      6.52346613	     -3.90104104	     -1.68710743	      2.00995669	      0.94702900	     -0.21562124	     12.93651786	      5.44055336	     -4.88590025	    -56.35697390	      1.36480998	    -12.40575882	      0.00000000	     -4.74431885	      1.69729201	     -3.17778377	     -5.59102556	      7.74518094	     -4.50923446	      0.00000000	    -25.23841394	      4.87343503	     -0.60485615
      8.54000000	      6.41546247	     -4.04459917	     -1.48148339	      2.01817695	      0.94717002	     -0.21611678	     13.76742641	      5.66401402	     -5.10784947	    -55.10833605	      2.44189844	    -12.61619030	      0.00000000	     -5.39598594	      1.57350361	     -3.10201720	     -5.17380246	      8.08522658	     -4.38088859	      0.00000000	    -25.14965230	      5.13193623	     -0.82187019
      8.55000000	      6.32093062	     -4.13493578	     -1.27874210	      2.02639199	      0.94718165	     -0.21657122	     14.51957430	      5.80757242	     -5.35460968	    -53.66611200	      3.45407406	    -12.58399898	      0.00000000	     -6.06910706	      1.50138550	     -3.03757080	     -4.73790548	      8.40980287	     -4.15679834	      0.00000000	    -25.09577867	      5.31753543	     -1.10494878
      8.56000000	      6.18968613	     -4.22863649	     -1.05317479	      2.03462216	      0.94703704	     -0.21700020	     15.21073073	      5.94690160	     -5.64053844	    -51.94473167	      4.14442274	    -12.79298389	      0.00000000	     -6.67850422	      1.41620440	     -2.91945517	     -4.34894547	      8.74260581	     -4.03344314	      0.00000000	    -24.99182821	      5.51144310	     -1.36402252
      8.57000000	      6.07078622	     -4.30408091	     -0.82171315	      2.04287468	      0.94680388	     -0.21740786	     15.78747172	      6.05662513	     -5.94811499	    -49.95784924	      4.74610778	    -12.92669861	      0.00000000	     -7.28784281	      1.34448824	     -2.77494538	     -3.99058796	      9.06383524	     -3.91488817	      0.00000000	    -24.90234203	      5.68706312	     -1.62535331
      8.58000000	      5.95798488	     -4.37501120	     -0.59175979	      2.05114789	      0.94647794	     -0.21775356	     16.25390637	      6.15130308	     -6.30106112	    -47.70197017	      5.23186572	    -12.98455658	      0.00000000	     -7.89497353	      1.26944951	     -2.60114561	     -3.65469813	      9.38714946	     -3.81993716	      0.00000000	    -24.82912197	      5.84048519	     -1.88050738
      8.59000000	      5.87228991	     -4.42667202	     -0.36089879	      2.05945420	      0.94608483	     -0.21806618	     16.57772814	      6.22455206	     -6.67613247	    -45.17205744	      5.63479742	    -12.95463679	      0.00000000	     -8.51983382	      1.20991701	     -2.38226778	     -3.34844499	      9.67681502	     -3.76789970	      0.00000000	    -24.78945964	      5.97106805	     -2.12341187
      8.60000000	      5.74973510	     -4.46104877	     -0.11382226	      2.06779732	      0.94552649	     -0.21836433	     16.83330882	      6.26648180	     -7.12797667	    -42.38695922	      5.88164643	    -12.84239919	      0.00000000	     -9.07256776	      1.15900817	     -2.14659272	     -3.10590111	      9.99064813	     -3.74340660	      0.00000000	    -24.69721309	      6.08574130	     -2.36116349
      8.61000000	      5.66146155	     -4.45702932	      0.14596725	      2.07619815	      0.94488116	     -0.21864537	     16.94010768	      6.26460633	     -7.63533215	    -39.36738077	      6.04779169	    -12.59076468	      0.00000000	     -9.65106384	      1.14180780	     -1.86022665	     -2.89107941	     10.29143034	     -3.74516762	      0.00000000	    -24.63924822	      6.15397121	     -2.61632964
      8.62000000	      5.61485779	     -4.40369356	      0.42563639	      2.08466231	      0.94414975	     -0.21891095	     16.89579675	      6.21512919	     -8.19059262	    -36.14558621	      6.20100260	    -12.11619219	      0.00000000	    -10.26196796	      1.16756541	     -1.49271992	     -2.70924494	     10.54315452	     -3.81478899	      0.00000000	    -24.62372910	      6.16680612	     -2.89666990
      8.63000000	      5.55700187	     -4.29258765	      0.73377476	      2.09320616	      0.94324122	     -0.21919758	     16.77776229	      6.09117149	     -8.86942710	    -32.77803439	      6.25724513	    -11.46327231	      0.00000000	    -10.84457781	      1.24506664	     -1.10529730	     -2.56030017	     10.85911946	     -3.88386721	      0.00000000	    -24.57040227	      6.12084471	     -3.21960075
      8.64000000	      5.53127112	     -4.12211512	      1.06968406	      2.10181304	      0.94223187	     -0.21949018	     16.54363159	      5.90998429	     -9.63716825	    -29.29167471	      6.33398310	    -10.54529060	      0.00000000	    -11.43518387	      1.37265118	     -0.69038902	     -2.46923391	     11.16000405	     -3.96539113	      0.00000000	    -24.55261812	      6.01487478	     -3.55949147
      8.65000000	      5.53050350	     -3.89798524	      1.41206295	      2.11053932	      0.94111066	     -0.21975817	     16.21893404	      5.68078236	    -10.51350272	    -25.74591033	      6.46756169	     -9.29431805	      0.00000000	    -12.06516503	      1.54723458	     -0.26841300	     -2.36859753	     11.45835107	     -4.06451061	      0.00000000	    -24.54248517	      5.84121692	     -3.93500791
      8.66000000	      5.50353205	     -3.62561153	      1.74629583	      2.11937631	      0.93983237	     -0.22001446	     15.88452080	      5.40641637	    -11.52047610	    -22.20394919	      6.65390159	     -7.63709823	      0.00000000	    -12.66324214	      1.76810343	      0.10386133	     -2.28758389	     11.70813415	     -4.21164553	      0.00000000	    -24.47794645	      5.62118844	     -4.28962790
      8.67000000	      5.53031946	     -3.30653793	      2.08634015	      2.12830162	      0.93852399	     -0.22020361	     15.45405750	      5.12427069	    -12.53623688	    -18.67521185	      6.78503456	     -5.90735686	      0.00000000	    -13.30964532	      2.02031626	      0.45988956	     -2.24775768	     12.05110615	     -4.23876262	      0.00000000	    -24.48257751	      5.33106202	     -4.66703790
      8.68000000	      5.56887633	     -2.96627660	      2.41537485	      2.13735419	      0.93715245	     -0.22030986	     14.98779205	      4.85895402	    -13.53740179	    -15.21467475	      6.93838250	     -4.04927830	      0.00000000	    -13.96593700	      2.28101474	      0.76959907	     -2.24017159	     12.41820312	     -4.19015198	      0.00000000	    -24.49074366	      5.00290720	     -5.03038224
      8.69000000	      5.62567792	     -2.61972927	      2.71323668	      2.14652668	      0.93574643	     -0.22030661	     14.48672486	      4.63351674	    -14.41877290	    -11.86571861	      7.04082746	     -2.20702541	      0.00000000	    -14.63337294	      2.53942903	      1.00803570	     -2.27514363	     12.79798906	     -4.09145904	      0.00000000	    -24.51862960	      4.65171043	     -5.33395646
      8.70000000	      5.69356260	     -2.28026292	      2.97533857	      2.15582502	      0.93431320	     -0.22017303	     13.96478417	      4.45945397	    -15.07165422	     -8.67392959	      7.08905951	     -0.53861611	      0.00000000	    -15.30229440	      2.78294476	      1.20127828	     -2.35796503	     13.18903314	     -3.95990186	      0.00000000	    -24.55718291	      4.28476094	     -5.58036876
      8.71000000	      5.76239206	     -1.96015263	      3.20073796	      2.16524507	      0.93286178	     -0.21991753	     13.43941890	      4.33414497	    -15.40316996	     -5.68722201	      7.06242471	      0.80861489	      0.00000000	    -15.95269896	      3.00194242	      1.35417729	     -2.50167082	     13.57373806	     -3.82090095	      0.00000000	    -24.59462976	      3.92091359	     -5.76863842
